<svg width="300" height="300" viewBox="0 0 300 300" fill="none" xmlns="http://www.w3.org/2000/svg">
  <rect width="300" height="300" fill="#f8f9fa"/>
  <!-- CPU 基板 -->
  <rect x="50" y="50" width="200" height="200" rx="8" fill="#1e3a8a"/>
  <!-- CPU 核心 -->
  <rect x="80" y="80" width="140" height="140" rx="4" fill="#2563eb"/>
  <!-- 引脚网格 -->
  <g fill="#94a3b8">
    <rect x="60" y="60" width="4" height="4" rx="1"/>
    <rect x="70" y="60" width="4" height="4" rx="1"/>
    <rect x="80" y="60" width="4" height="4" rx="1"/>
    <rect x="90" y="60" width="4" height="4" rx="1"/>
    <rect x="100" y="60" width="4" height="4" rx="1"/>
    <rect x="110" y="60" width="4" height="4" rx="1"/>
    <rect x="120" y="60" width="4" height="4" rx="1"/>
    <rect x="130" y="60" width="4" height="4" rx="1"/>
    <rect x="140" y="60" width="4" height="4" rx="1"/>
    <rect x="150" y="60" width="4" height="4" rx="1"/>
    <rect x="160" y="60" width="4" height="4" rx="1"/>
    <rect x="170" y="60" width="4" height="4" rx="1"/>
    <rect x="180" y="60" width="4" height="4" rx="1"/>
    <rect x="190" y="60" width="4" height="4" rx="1"/>
    <rect x="200" y="60" width="4" height="4" rx="1"/>
    <rect x="210" y="60" width="4" height="4" rx="1"/>
    <rect x="220" y="60" width="4" height="4" rx="1"/>
    <rect x="230" y="60" width="4" height="4" rx="1"/>
    
    <rect x="60" y="70" width="4" height="4" rx="1"/>
    <rect x="230" y="70" width="4" height="4" rx="1"/>
    <rect x="60" y="80" width="4" height="4" rx="1"/>
    <rect x="230" y="80" width="4" height="4" rx="1"/>
    <rect x="60" y="90" width="4" height="4" rx="1"/>
    <rect x="230" y="90" width="4" height="4" rx="1"/>
    <rect x="60" y="100" width="4" height="4" rx="1"/>
    <rect x="230" y="100" width="4" height="4" rx="1"/>
    <rect x="60" y="110" width="4" height="4" rx="1"/>
    <rect x="230" y="110" width="4" height="4" rx="1"/>
    <rect x="60" y="120" width="4" height="4" rx="1"/>
    <rect x="230" y="120" width="4" height="4" rx="1"/>
    <rect x="60" y="130" width="4" height="4" rx="1"/>
    <rect x="230" y="130" width="4" height="4" rx="1"/>
    <rect x="60" y="140" width="4" height="4" rx="1"/>
    <rect x="230" y="140" width="4" height="4" rx="1"/>
    <rect x="60" y="150" width="4" height="4" rx="1"/>
    <rect x="230" y="150" width="4" height="4" rx="1"/>
    <rect x="60" y="160" width="4" height="4" rx="1"/>
    <rect x="230" y="160" width="4" height="4" rx="1"/>
    <rect x="60" y="170" width="4" height="4" rx="1"/>
    <rect x="230" y="170" width="4" height="4" rx="1"/>
    <rect x="60" y="180" width="4" height="4" rx="1"/>
    <rect x="230" y="180" width="4" height="4" rx="1"/>
    <rect x="60" y="190" width="4" height="4" rx="1"/>
    <rect x="230" y="190" width="4" height="4" rx="1"/>
    <rect x="60" y="200" width="4" height="4" rx="1"/>
    <rect x="230" y="200" width="4" height="4" rx="1"/>
    <rect x="60" y="210" width="4" height="4" rx="1"/>
    <rect x="230" y="210" width="4" height="4" rx="1"/>
    <rect x="60" y="220" width="4" height="4" rx="1"/>
    <rect x="230" y="220" width="4" height="4" rx="1"/>
    <rect x="60" y="230" width="4" height="4" rx="1"/>
    <rect x="230" y="230" width="4" height="4" rx="1"/>
    
    <rect x="60" y="236" width="4" height="4" rx="1"/>
    <rect x="70" y="236" width="4" height="4" rx="1"/>
    <rect x="80" y="236" width="4" height="4" rx="1"/>
    <rect x="90" y="236" width="4" height="4" rx="1"/>
    <rect x="100" y="236" width="4" height="4" rx="1"/>
    <rect x="110" y="236" width="4" height="4" rx="1"/>
    <rect x="120" y="236" width="4" height="4" rx="1"/>
    <rect x="130" y="236" width="4" height="4" rx="1"/>
    <rect x="140" y="236" width="4" height="4" rx="1"/>
    <rect x="150" y="236" width="4" height="4" rx="1"/>
    <rect x="160" y="236" width="4" height="4" rx="1"/>
    <rect x="170" y="236" width="4" height="4" rx="1"/>
    <rect x="180" y="236" width="4" height="4" rx="1"/>
    <rect x="190" y="236" width="4" height="4" rx="1"/>
    <rect x="200" y="236" width="4" height="4" rx="1"/>
    <rect x="210" y="236" width="4" height="4" rx="1"/>
    <rect x="220" y="236" width="4" height="4" rx="1"/>
    <rect x="230" y="236" width="4" height="4" rx="1"/>
  </g>
  <!-- Intel 标识 -->
  <text x="150" y="150" fill="white" font-size="20" font-weight="bold" text-anchor="middle">Intel</text>
  <text x="150" y="170" fill="#93c5fd" font-size="14" text-anchor="middle">Core i9</text>
  <text x="150" y="185" fill="#93c5fd" font-size="12" text-anchor="middle">13th Gen</text>
  
  <!-- 型号标识 -->
  <text x="150" y="270" fill="#1a1a1a" font-size="16" font-weight="bold" text-anchor="middle">i9-13900K</text>
</svg>