<svg width="300" height="300" viewBox="0 0 300 300" fill="none" xmlns="http://www.w3.org/2000/svg">
  <rect width="300" height="300" fill="#f8f9fa"/>
  <!-- CPU 基板 -->
  <rect x="50" y="50" width="200" height="200" rx="8" fill="#dc3545"/>
  <!-- CPU 核心 -->
  <rect x="80" y="80" width="140" height="140" rx="4" fill="#b91c1c"/>
  <!-- AMD 标识区域 -->
  <rect x="100" y="100" width="100" height="100" rx="8" fill="#1a1a1a"/>
  
  <!-- 引脚 -->
  <g fill="#fbbf24">
    <circle cx="65" cy="65" r="2"/>
    <circle cx="75" cy="65" r="2"/>
    <circle cx="85" cy="65" r="2"/>
    <circle cx="95" cy="65" r="2"/>
    <circle cx="105" cy="65" r="2"/>
    <circle cx="115" cy="65" r="2"/>
    <circle cx="125" cy="65" r="2"/>
    <circle cx="135" cy="65" r="2"/>
    <circle cx="145" cy="65" r="2"/>
    <circle cx="155" cy="65" r="2"/>
    <circle cx="165" cy="65" r="2"/>
    <circle cx="175" cy="65" r="2"/>
    <circle cx="185" cy="65" r="2"/>
    <circle cx="195" cy="65" r="2"/>
    <circle cx="205" cy="65" r="2"/>
    <circle cx="215" cy="65" r="2"/>
    <circle cx="225" cy="65" r="2"/>
    <circle cx="235" cy="65" r="2"/>
    
    <circle cx="65" cy="75" r="2"/>
    <circle cx="235" cy="75" r="2"/>
    <circle cx="65" cy="85" r="2"/>
    <circle cx="235" cy="85" r="2"/>
    <circle cx="65" cy="95" r="2"/>
    <circle cx="235" cy="95" r="2"/>
    <circle cx="65" cy="105" r="2"/>
    <circle cx="235" cy="105" r="2"/>
    <circle cx="65" cy="115" r="2"/>
    <circle cx="235" cy="115" r="2"/>
    <circle cx="65" cy="125" r="2"/>
    <circle cx="235" cy="125" r="2"/>
    <circle cx="65" cy="135" r="2"/>
    <circle cx="235" cy="135" r="2"/>
    <circle cx="65" cy="145" r="2"/>
    <circle cx="235" cy="145" r="2"/>
    <circle cx="65" cy="155" r="2"/>
    <circle cx="235" cy="155" r="2"/>
    <circle cx="65" cy="165" r="2"/>
    <circle cx="235" cy="165" r="2"/>
    <circle cx="65" cy="175" r="2"/>
    <circle cx="235" cy="175" r="2"/>
    <circle cx="65" cy="185" r="2"/>
    <circle cx="235" cy="185" r="2"/>
    <circle cx="65" cy="195" r="2"/>
    <circle cx="235" cy="195" r="2"/>
    <circle cx="65" cy="205" r="2"/>
    <circle cx="235" cy="205" r="2"/>
    <circle cx="65" cy="215" r="2"/>
    <circle cx="235" cy="215" r="2"/>
    <circle cx="65" cy="225" r="2"/>
    <circle cx="235" cy="225" r="2"/>
    <circle cx="65" cy="235" r="2"/>
    <circle cx="235" cy="235" r="2"/>
    
    <circle cx="65" cy="235" r="2"/>
    <circle cx="75" cy="235" r="2"/>
    <circle cx="85" cy="235" r="2"/>
    <circle cx="95" cy="235" r="2"/>
    <circle cx="105" cy="235" r="2"/>
    <circle cx="115" cy="235" r="2"/>
    <circle cx="125" cy="235" r="2"/>
    <circle cx="135" cy="235" r="2"/>
    <circle cx="145" cy="235" r="2"/>
    <circle cx="155" cy="235" r="2"/>
    <circle cx="165" cy="235" r="2"/>
    <circle cx="175" cy="235" r="2"/>
    <circle cx="185" cy="235" r="2"/>
    <circle cx="195" cy="235" r="2"/>
    <circle cx="205" cy="235" r="2"/>
    <circle cx="215" cy="235" r="2"/>
    <circle cx="225" cy="235" r="2"/>
    <circle cx="235" cy="235" r="2"/>
  </g>
  
  <!-- AMD 标识 -->
  <text x="150" y="140" fill="white" font-size="18" font-weight="bold" text-anchor="middle">AMD</text>
  <text x="150" y="160" fill="#ef4444" font-size="14" text-anchor="middle">Ryzen 7</text>
  <text x="150" y="175" fill="#fca5a5" font-size="12" text-anchor="middle">7800X3D</text>
  
  <!-- 型号标识 -->
  <text x="150" y="270" fill="#1a1a1a" font-size="16" font-weight="bold" text-anchor="middle">Ryzen 7 7800X3D</text>
</svg>