<svg width="300" height="300" viewBox="0 0 300 300" fill="none" xmlns="http://www.w3.org/2000/svg">
  <rect width="300" height="300" fill="#f8f9fa"/>
  <!-- 内存条主体 -->
  <rect x="80" y="50" width="140" height="200" rx="4" fill="#1a1a1a"/>
  <!-- 散热片 -->
  <rect x="85" y="55" width="130" height="190" rx="2" fill="#333"/>
  <!-- 顶部散热片 -->
  <rect x="90" y="60" width="120" height="30" rx="2" fill="#fbbf24"/>
  
  <!-- Corsair 标识 -->
  <rect x="100" y="70" width="100" height="15" rx="2" fill="#1a1a1a"/>
  <text x="150" y="80" fill="#fbbf24" font-size="10" font-weight="bold" text-anchor="middle">CORSAIR</text>
  
  <!-- 内存芯片 -->
  <rect x="95" y="100" width="110" height="15" rx="1" fill="#1a1a1a"/>
  <rect x="95" y="120" width="110" height="15" rx="1" fill="#1a1a1a"/>
  <rect x="95" y="140" width="110" height="15" rx="1" fill="#1a1a1a"/>
  <rect x="95" y="160" width="110" height="15" rx="1" fill="#1a1a1a"/>
  <rect x="95" y="180" width="110" height="15" rx="1" fill="#1a1a1a"/>
  <rect x="95" y="200" width="110" height="15" rx="1" fill="#1a1a1a"/>
  <rect x="95" y="220" width="110" height="15" rx="1" fill="#1a1a1a"/>
  
  <!-- 芯片标识点 -->
  <g fill="#fbbf24">
    <circle cx="105" cy="107" r="1"/>
    <circle cx="195" cy="107" r="1"/>
    <circle cx="105" cy="127" r="1"/>
    <circle cx="195" cy="127" r="1"/>
    <circle cx="105" cy="147" r="1"/>
    <circle cx="195" cy="147" r="1"/>
    <circle cx="105" cy="167" r="1"/>
    <circle cx="195" cy="167" r="1"/>
    <circle cx="105" cy="187" r="1"/>
    <circle cx="195" cy="187" r="1"/>
    <circle cx="105" cy="207" r="1"/>
    <circle cx="195" cy="207" r="1"/>
    <circle cx="105" cy="227" r="1"/>
    <circle cx="195" cy="227" r="1"/>
  </g>
  
  <!-- 金手指 -->
  <rect x="85" y="240" width="130" height="8" fill="#fbbf24"/>
  <g fill="#e5a000">
    <rect x="90" y="242" width="2" height="4"/>
    <rect x="95" y="242" width="2" height="4"/>
    <rect x="100" y="242" width="2" height="4"/>
    <rect x="105" y="242" width="2" height="4"/>
    <rect x="110" y="242" width="2" height="4"/>
    <rect x="115" y="242" width="2" height="4"/>
    <rect x="120" y="242" width="2" height="4"/>
    <rect x="125" y="242" width="2" height="4"/>
    <rect x="130" y="242" width="2" height="4"/>
    <rect x="135" y="242" width="2" height="4"/>
    <rect x="140" y="242" width="2" height="4"/>
    <rect x="145" y="242" width="2" height="4"/>
    <rect x="155" y="242" width="2" height="4"/>
    <rect x="160" y="242" width="2" height="4"/>
    <rect x="165" y="242" width="2" height="4"/>
    <rect x="170" y="242" width="2" height="4"/>
    <rect x="175" y="242" width="2" height="4"/>
    <rect x="180" y="242" width="2" height="4"/>
    <rect x="185" y="242" width="2" height="4"/>
    <rect x="190" y="242" width="2" height="4"/>
    <rect x="195" y="242" width="2" height="4"/>
    <rect x="200" y="242" width="2" height="4"/>
    <rect x="205" y="242" width="2" height="4"/>
    <rect x="210" y="242" width="2" height="4"/>
  </g>
  
  <!-- 型号标识 -->
  <text x="150" y="270" fill="#1a1a1a" font-size="14" font-weight="bold" text-anchor="middle">DDR5-6000</text>
  <text x="150" y="285" fill="#666" font-size="10" text-anchor="middle">32GB (2x16GB)</text>
</svg>