<svg width="300" height="300" viewBox="0 0 300 300" fill="none" xmlns="http://www.w3.org/2000/svg">
  <rect width="300" height="300" fill="#f8f9fa"/>
  <!-- 电源主体 -->
  <rect x="40" y="80" width="220" height="140" rx="8" fill="#1a1a1a"/>
  <!-- 散热格栅 -->
  <rect x="50" y="90" width="200" height="120" rx="4" fill="#333"/>
  
  <!-- 散热孔 -->
  <g fill="#666">
    <circle cx="70" cy="110" r="3"/>
    <circle cx="85" cy="110" r="3"/>
    <circle cx="100" cy="110" r="3"/>
    <circle cx="115" cy="110" r="3"/>
    <circle cx="130" cy="110" r="3"/>
    <circle cx="145" cy="110" r="3"/>
    <circle cx="160" cy="110" r="3"/>
    <circle cx="175" cy="110" r="3"/>
    <circle cx="190" cy="110" r="3"/>
    <circle cx="205" cy="110" r="3"/>
    <circle cx="220" cy="110" r="3"/>
    <circle cx="235" cy="110" r="3"/>
    
    <circle cx="70" cy="125" r="3"/>
    <circle cx="85" cy="125" r="3"/>
    <circle cx="100" cy="125" r="3"/>
    <circle cx="115" cy="125" r="3"/>
    <circle cx="130" cy="125" r="3"/>
    <circle cx="145" cy="125" r="3"/>
    <circle cx="160" cy="125" r="3"/>
    <circle cx="175" cy="125" r="3"/>
    <circle cx="190" cy="125" r="3"/>
    <circle cx="205" cy="125" r="3"/>
    <circle cx="220" cy="125" r="3"/>
    <circle cx="235" cy="125" r="3"/>
    
    <circle cx="70" cy="140" r="3"/>
    <circle cx="85" cy="140" r="3"/>
    <circle cx="100" cy="140" r="3"/>
    <circle cx="115" cy="140" r="3"/>
    <circle cx="130" cy="140" r="3"/>
    <circle cx="145" cy="140" r="3"/>
    <circle cx="160" cy="140" r="3"/>
    <circle cx="175" cy="140" r="3"/>
    <circle cx="190" cy="140" r="3"/>
    <circle cx="205" cy="140" r="3"/>
    <circle cx="220" cy="140" r="3"/>
    <circle cx="235" cy="140" r="3"/>
    
    <circle cx="70" cy="155" r="3"/>
    <circle cx="85" cy="155" r="3"/>
    <circle cx="100" cy="155" r="3"/>
    <circle cx="115" cy="155" r="3"/>
    <circle cx="130" cy="155" r="3"/>
    <circle cx="145" cy="155" r="3"/>
    <circle cx="160" cy="155" r="3"/>
    <circle cx="175" cy="155" r="3"/>
    <circle cx="190" cy="155" r="3"/>
    <circle cx="205" cy="155" r="3"/>
    <circle cx="220" cy="155" r="3"/>
    <circle cx="235" cy="155" r="3"/>
    
    <circle cx="70" cy="170" r="3"/>
    <circle cx="85" cy="170" r="3"/>
    <circle cx="100" cy="170" r="3"/>
    <circle cx="115" cy="170" r="3"/>
    <circle cx="130" cy="170" r="3"/>
    <circle cx="145" cy="170" r="3"/>
    <circle cx="160" cy="170" r="3"/>
    <circle cx="175" cy="170" r="3"/>
    <circle cx="190" cy="170" r="3"/>
    <circle cx="205" cy="170" r="3"/>
    <circle cx="220" cy="170" r="3"/>
    <circle cx="235" cy="170" r="3"/>
    
    <circle cx="70" cy="185" r="3"/>
    <circle cx="85" cy="185" r="3"/>
    <circle cx="100" cy="185" r="3"/>
    <circle cx="115" cy="185" r="3"/>
    <circle cx="130" cy="185" r="3"/>
    <circle cx="145" cy="185" r="3"/>
    <circle cx="160" cy="185" r="3"/>
    <circle cx="175" cy="185" r="3"/>
    <circle cx="190" cy="185" r="3"/>
    <circle cx="205" cy="185" r="3"/>
    <circle cx="220" cy="185" r="3"/>
    <circle cx="235" cy="185" r="3"/>
  </g>
  
  <!-- Corsair 标识 -->
  <rect x="120" y="95" width="60" height="15" rx="2" fill="#fbbf24"/>
  <text x="150" y="105" fill="#1a1a1a" font-size="10" font-weight="bold" text-anchor="middle">CORSAIR</text>
  
  <!-- 功率标识 -->
  <text x="150" y="200" fill="#fbbf24" font-size="16" font-weight="bold" text-anchor="middle">850W</text>
  
  <!-- 电源接口 -->
  <rect x="265" y="120" width="15" height="60" rx="2" fill="#2d2d2d"/>
  <rect x="268" y="125" width="9" height="8" fill="#666"/>
  <rect x="268" y="135" width="9" height="8" fill="#666"/>
  <rect x="268" y="145" width="9" height="8" fill="#666"/>
  <rect x="268" y="155" width="9" height="8" fill="#666"/>
  <rect x="268" y="165" width="9" height="8" fill="#666"/>
  <rect x="268" y="175" width="9" height="8" fill="#666"/>
  
  <!-- 型号标识 -->
  <text x="150" y="240" fill="#1a1a1a" font-size="14" font-weight="bold" text-anchor="middle">RM850x</text>
  <text x="150" y="255" fill="#666" font-size="10" text-anchor="middle">80+ Gold Modular</text>
</svg>